<svg width="350" height="350" viewBox="0 0 350 350" fill="none" xmlns="http://www.w3.org/2000/svg">
<circle cx="175" cy="175" r="175" fill="#46027B"/>
<rect x="91" y="69" width="28" height="86" fill="#F27405"/>
<rect x="170" y="83" width="27" height="81" fill="#333333"/>
<rect x="206" y="73" width="27" height="91" fill="#F27405"/>
<rect x="134" y="100" width="28" height="64" fill="#4682B4"/>
<path d="M71.0185 222.046H59.7485V238.118C59.7485 238.869 59.0951 239.245 57.7885 239.245C56.4818 239.245 55.8285 238.869 55.8285 238.118V211.364C55.8285 208.326 56.4165 206.137 57.5925 204.798C58.7685 203.426 60.7611 202.74 63.5705 202.74H72.9785C73.6318 202.74 73.9585 203.312 73.9585 204.455C73.9585 205.598 73.6318 206.17 72.9785 206.17H63.5705C62.1658 206.17 61.1695 206.562 60.5815 207.346C60.0261 208.13 59.7485 209.469 59.7485 211.364V218.616H71.0185C71.6718 218.616 71.9985 219.188 71.9985 220.331C71.9985 221.474 71.6718 222.046 71.0185 222.046ZM83.77 210.482V233.267C83.77 234.312 84.015 235.292 84.505 236.207C84.995 237.089 85.24 237.546 85.24 237.579C85.24 237.971 84.9296 238.396 84.309 238.853C83.6883 239.278 83.1656 239.49 82.741 239.49C82.055 239.49 81.4016 238.902 80.781 237.726C80.1603 236.517 79.85 235.194 79.85 233.757V210.482C79.85 209.731 80.5033 209.355 81.81 209.355C83.1166 209.355 83.77 209.731 83.77 210.482ZM83.917 200.045V204.308C83.917 205.125 83.1983 205.533 81.761 205.533C80.3563 205.533 79.654 205.125 79.654 204.308V200.045C79.654 199.228 80.3563 198.82 81.761 198.82C83.1983 198.82 83.917 199.228 83.917 200.045ZM115.757 216.607V238.118C115.757 238.869 115.104 239.245 113.797 239.245C112.491 239.245 111.837 238.869 111.837 238.118V216.117C111.837 213.569 109.6 212.295 105.124 212.295C100.682 212.295 98.4604 213.569 98.4604 216.117V238.118C98.4604 238.869 97.8071 239.245 96.5004 239.245C95.1937 239.245 94.5404 238.869 94.5404 238.118V216.607C94.5404 213.896 95.5041 211.936 97.4314 210.727C99.3587 209.486 101.923 208.865 105.124 208.865C108.326 208.865 110.89 209.486 112.817 210.727C114.777 211.936 115.757 213.896 115.757 216.607ZM149.24 203.622V238.118C149.24 238.869 148.587 239.245 147.28 239.245C145.973 239.245 145.32 238.869 145.32 238.118V222.879H130.473V238.118C130.473 238.869 129.82 239.245 128.513 239.245C127.206 239.245 126.553 238.869 126.553 238.118V203.622C126.553 202.871 127.206 202.495 128.513 202.495C129.82 202.495 130.473 202.871 130.473 203.622V219.449H145.32V203.622C145.32 202.871 145.973 202.495 147.28 202.495C148.587 202.495 149.24 202.871 149.24 203.622ZM180.973 216.509V217.979C180.973 220.756 180.402 222.667 179.258 223.712C178.115 224.757 176.024 225.427 172.986 225.721L163.431 226.652V232.483C163.431 235.031 165.555 236.305 169.801 236.305C174.636 236.305 177.053 235.194 177.053 232.973V231.111C177.053 230.36 177.707 229.984 179.013 229.984C180.32 229.984 180.973 230.36 180.973 231.111V232.483C180.973 237.318 177.38 239.735 170.193 239.735C167.025 239.735 164.444 239.114 162.451 237.873C160.491 236.632 159.511 234.672 159.511 231.993V216.607C159.511 213.896 160.557 211.936 162.647 210.727C164.738 209.486 167.466 208.865 170.83 208.865C174.195 208.865 176.727 209.453 178.425 210.629C180.124 211.805 180.973 213.765 180.973 216.509ZM163.431 216.117V223.222L172.643 222.291C174.505 222.095 175.698 221.703 176.22 221.115C176.776 220.527 177.053 219.482 177.053 217.979V216.117C177.053 213.569 174.783 212.295 170.242 212.295C165.702 212.295 163.431 213.569 163.431 216.117ZM195.168 200.927V233.267C195.168 234.312 195.413 235.292 195.903 236.207C196.393 237.089 196.638 237.546 196.638 237.579C196.638 237.971 196.328 238.396 195.707 238.853C195.087 239.278 194.564 239.49 194.139 239.49C193.453 239.49 192.8 238.902 192.179 237.726C191.559 236.517 191.248 235.194 191.248 233.757V200.927C191.248 200.176 191.902 199.8 193.208 199.8C194.515 199.8 195.168 200.176 195.168 200.927ZM212.309 235.57H216.572C221.014 235.57 223.236 234.296 223.236 231.748V216.117C223.236 213.569 220.998 212.295 216.523 212.295C212.08 212.295 209.859 213.569 209.859 216.117V250.368C209.859 251.119 209.205 251.495 207.899 251.495C206.592 251.495 205.939 251.119 205.939 250.368V216.607C205.939 213.896 206.902 211.936 208.83 210.727C210.757 209.486 213.321 208.865 216.523 208.865C219.724 208.865 222.288 209.486 224.216 210.727C226.176 211.936 227.156 213.896 227.156 216.607V231.258C227.156 233.969 226.192 235.946 224.265 237.187C222.337 238.396 219.773 239 216.572 239H212.309C211.655 239 211.329 238.428 211.329 237.285C211.329 236.142 211.655 235.57 212.309 235.57ZM258.397 216.509V217.979C258.397 220.756 257.825 222.667 256.682 223.712C255.539 224.757 253.448 225.427 250.41 225.721L240.855 226.652V232.483C240.855 235.031 242.978 236.305 247.225 236.305C252.06 236.305 254.477 235.194 254.477 232.973V231.111C254.477 230.36 255.13 229.984 256.437 229.984C257.744 229.984 258.397 230.36 258.397 231.111V232.483C258.397 237.318 254.804 239.735 247.617 239.735C244.448 239.735 241.868 239.114 239.875 237.873C237.915 236.632 236.935 234.672 236.935 231.993V216.607C236.935 213.896 237.98 211.936 240.071 210.727C242.162 209.486 244.889 208.865 248.254 208.865C251.619 208.865 254.15 209.453 255.849 210.629C257.548 211.805 258.397 213.765 258.397 216.509ZM240.855 216.117V223.222L250.067 222.291C251.929 222.095 253.121 221.703 253.644 221.115C254.199 220.527 254.477 219.482 254.477 217.979V216.117C254.477 213.569 252.207 212.295 247.666 212.295C243.125 212.295 240.855 213.569 240.855 216.117ZM281.706 218.567V216.117C281.706 213.569 280.187 212.295 277.149 212.295C274.111 212.295 272.592 213.569 272.592 216.117V238.608C272.592 239.359 271.939 239.735 270.632 239.735C269.326 239.735 268.672 239.359 268.672 238.608V216.607C268.672 213.896 269.44 211.936 270.975 210.727C272.543 209.486 274.601 208.865 277.149 208.865C282.801 208.865 285.626 211.413 285.626 216.509V218.567C285.626 219.318 284.973 219.694 283.666 219.694C282.36 219.694 281.706 219.318 281.706 218.567Z" fill="#F27405"/>
<path d="M320.365 217.433C316.972 220.328 313 223.43 308.38 226.679C312.394 223.766 316.391 220.686 320.365 217.433Z" fill="#C4C4C4" stroke="#46027B" stroke-width="5"/>
<path d="M186.706 164.5C224.146 164.5 256.852 179.323 282.729 191.051C288.831 193.816 294.554 196.41 299.87 198.597C306.81 201.451 313.091 203.623 318.606 204.532C324.122 205.441 328.989 205.106 333.005 202.812C337.035 200.51 340.028 196.339 342.013 189.96C343.994 183.592 345 174.934 345 163.5C345 152.066 343.994 143.408 342.013 137.04C340.028 130.661 337.035 126.49 333.005 124.188C328.989 121.894 324.122 121.559 318.606 122.468C313.091 123.377 306.81 125.549 299.87 128.403C294.554 130.59 288.831 133.184 282.729 135.949C256.852 147.677 224.146 162.5 186.706 162.5C163.597 162.5 140.85 156.842 119.685 149.738C109.105 146.186 98.9327 142.278 89.3123 138.541C88.4203 138.194 87.533 137.849 86.6505 137.506C78.0227 134.15 69.8521 130.973 62.279 128.382C53.9341 125.527 46.2645 123.366 39.4541 122.464C32.6484 121.561 26.6099 121.902 21.5851 124.143C11.4167 128.679 6 140.662 6 163.5C6 186.338 11.4167 198.321 21.5851 202.857C26.6099 205.098 32.6484 205.439 39.4541 204.536C46.2645 203.634 53.9341 201.473 62.279 198.618C69.852 196.027 78.0226 192.85 86.6503 189.494C87.5329 189.151 88.4203 188.806 89.3123 188.459C98.9327 184.722 109.105 180.814 119.685 177.262C140.85 170.158 163.597 164.5 186.706 164.5Z" fill="#2F80ED" stroke="#46027B" stroke-width="2"/>
</svg>
